<svg xmlns="http://www.w3.org/2000/svg" viewBox="0 0 800 600" width="800" height="600">
  <defs>
    <radialGradient id="bg" cx="50%" cy="30%" r="90%"><stop offset="0%" stop-color="#16263a"/><stop offset="55%" stop-color="#0a0e15"/><stop offset="100%" stop-color="#05070a"/></radialGradient>
    <filter id="gl"><feGaussianBlur stdDeviation="5" result="b"/><feMerge><feMergeNode in="b"/><feMergeNode in="SourceGraphic"/></feMerge></filter>
  </defs>
  <rect width="800" height="600" fill="url(#bg)"/>
  <ellipse cx="400" cy="470" rx="420" ry="120" fill="#28d7fb" opacity="0.08" filter="url(#gl)"/>
  <g fill="#0e1622" stroke="#28d7fb" stroke-opacity="0.3" stroke-width="1.5">
    <rect x="120" y="300" width="70" height="180"/><rect x="200" y="240" width="60" height="240"/><rect x="270" y="330" width="50" height="150"/>
    <rect x="350" y="180" width="80" height="300"/><rect x="440" y="270" width="56" height="210"/><rect x="506" y="220" width="70" height="260"/>
    <rect x="586" y="320" width="50" height="160"/><rect x="646" y="260" width="60" height="220"/>
  </g>
  <g fill="#28d7fb" opacity="0.8">
    <rect x="364" y="200" width="10" height="10"/><rect x="384" y="220" width="10" height="10"/><rect x="404" y="200" width="10" height="10"/>
    <rect x="520" y="240" width="9" height="9"/><rect x="540" y="270" width="9" height="9"/><rect x="214" y="260" width="9" height="9"/>
  </g>
  <!-- drones -->
  <g stroke="#8af2ff" stroke-width="3" filter="url(#gl)"><path d="M250 120 h26 M263 110 v20"/><path d="M560 150 h26 M573 140 v20"/></g>
  <line x1="60" y1="480" x2="740" y2="480" stroke="#28d7fb" stroke-opacity="0.3"/>
  <text x="400" y="556" text-anchor="middle" font-family="monospace" font-size="13" letter-spacing="6" fill="#28d7fb" opacity="0.7">SMART CITY</text>
</svg>
